<svg width="70" height="70" viewBox="0 0 70 70" fill="none" xmlns="http://www.w3.org/2000/svg">
<path d="M17.1077 46.7096C16.2199 43.8127 16.6383 40.7608 16.2646 37.7973C15.9464 35.2772 15.3606 21.7046 17.3883 19.6951C21.0048 16.1114 47.8847 14.1301 51.6751 19.1383C54.4277 22.7746 53.9233 29.905 53.9233 34.177C53.9233 38.7911 55.0032 45.9183 51.3938 49.4944C45.963 54.8761 26.3903 54.3699 19.0747 52.5578" stroke="black" stroke-opacity="0.9" stroke-width="5" stroke-linecap="round" stroke-linejoin="round"/>
<path d="M16.1616 31.1886C18.9131 30.2318 26.7615 31.7745 27.0663 31.1322C27.835 29.5126 29.8069 26.1344 34.6353 25.2067C38.0253 24.5555 43.0732 25.2067 44.6986 28.5249C52.679 44.8155 35.8082 49.611 30.9904 47.0234C26.7285 44.7343 27.0663 41.6351 27.0663 39.2123" stroke="black" stroke-opacity="0.9" stroke-width="5" stroke-linecap="round" stroke-linejoin="round"/>
<path d="M33.3237 32.4602C34.2317 31.462 36.0974 30.1277 37.546 30.4898C42.1116 31.6311 42.0352 40.5147 37.2643 41.4695C32.7843 42.3653 29.4071 35.8264 33.3237 33.8677" stroke="black" stroke-opacity="0.9" stroke-width="5" stroke-linecap="round" stroke-linejoin="round"/>
<path d="M47.4912 31.1101C48.6708 30.947 52.4709 31.0864 53.6209 30.8831" stroke="black" stroke-opacity="0.9" stroke-width="4" stroke-linecap="round" stroke-linejoin="round"/>
<path d="M48.9668 24.3368C48.9668 24.236 48.9668 24.1358 48.9668 24.035" stroke="black" stroke-opacity="0.9" stroke-width="6" stroke-linecap="round" stroke-linejoin="round"/>
</svg>
